<svg xmlns="http://www.w3.org/2000/svg" height="22" width="30" style=""><rect id="backgroundrect" width="100%" height="100%" x="0" y="0" fill="none" stroke="none" class="" style=""/><g class="currentLayer" style=""><title>Layer 1</title><path d="m29.9342501537297,4.704357291052533 c0,-2.70252001486605 -5.7646329427638445,-4.277195816027083 -12.188381147706176,-4.628600544368306 c-0.917645724246669,-0.04997283096189659 -1.8487660427735326,-0.07575666822276236 -2.778059350189694,-0.07575666822276236 c-0.929521618030494,0 -1.8606419365573572,0.024986449505003387 -2.7789728265119313,0.07575666822276236 c-6.423748204942334,0.3519363201784625 -12.188837885867295,1.9266121213394962 -12.188837885867295,4.628600544368306 v0.098085022445337 c0,9.605150197943317 6.714480695221136,17.420050359005838 14.967582343298664,17.420050359005838 c8.25264490991641,0 14.967125605137548,-7.814900161062526 14.967125605137548,-17.420050359005838 v-0.098085022445337 c-0.0004567381611195004,0.0005316598853518946 -0.0004567381611195004,0.0005316598853518946 -0.0004567381611195004,0 zm-1.1307276990396808,0.0005316598853518946 c-0.0006851657079057123,1.381961443452982 -5.3903120485735645,3.388317443986994 -13.836397906097867,3.388317443986994 c-8.44608591599053,0 -13.835256002228842,-2.007153456337984 -13.836397906097867,-3.388317443986994 c0.0006851072416792506,-1.381961443452982 5.390997155815244,-3.388317443986994 13.837083013339546,-3.388317443986994 c8.44608591599053,0 13.835027633148282,2.006621864500744 13.835712798856187,3.388317443986994 zm-13.835941167936747,16.201298088995028 c-7.07966624152676,0 -12.931084930728595,-6.221617420732049 -13.737964518024159,-14.212751571826482 c2.4304592754792465,1.7891868532063084 8.109219948127333,2.7150133076666614 13.737964518024159,2.7150133076666614 c5.62897299744361,0 11.306820076837008,-0.9266239102643269 13.737507779863037,-2.7150133076666614 c-0.8073363839229081,7.991665810979785 -6.658298276497398,14.212751571826482 -13.737507779863037,14.212751571826482 zm0,0 " id="svg_1" class="" fill="#919191" fill-opacity="1"/><path fill="#919191" fill-opacity="1" stroke="none" stroke-opacity="1" stroke-width="1" stroke-dasharray="none" stroke-linejoin="miter" stroke-linecap="butt" stroke-dashoffset="" fill-rule="nonzero" opacity="1" marker-start="" marker-mid="" marker-end="" id="svg_2" d="M10.675675538093003,4.513516754543247 " style="color: rgb(0, 0, 0);"/></g></svg>